<svg width="55" height="66" viewBox="0 0 55 66" xmlns="http://www.w3.org/2000/svg" xmlns:xlink="http://www.w3.org/1999/xlink"><title>Group 19</title><defs><linearGradient x1="50%" y1="0%" x2="50%" y2="100%" id="a"><stop stop-color="#00D1F9" offset="0%"/><stop stop-color="#00A4F1" offset="100%"/></linearGradient><path d="M36.038 31.35c.028-.474.23-.634.722-.509.134.034.265.093.38.164 2.635 1.61 5.6 2.421 8.658 3.01.332.064.66.162.995.208 1.924.257 3.084 1.318 3.826 2.906 1.31 2.803 3.543 8.647 3.885 10.623.328 1.888-.986 3.476-3.05 3.75-.456.06-.919.1-1.378.1-2.613 0-32.887.005-45.411-.006-.654 0-1.33-.07-1.958-.232-1.65-.425-2.725-1.894-2.479-3.42.702-4.343 3.999-10.831 4.517-11.801.473-.886 1.28-1.447 2.331-1.691 1.748-.406 3.507-.772 5.241-1.217a20.094 20.094 0 0 0 5.187-2.15c.212-.125.477-.256.71-.245.177.008.488.235.491.37.053 2.182-.003 2.212.758 4.239.526 1.367 3.688 5.124 3.688 5.124l4.263-4.121 4.182 3.83s3.899-4.927 4.283-7.456c.144-.469.129-.981.159-1.475z" id="b"/><filter x="-3.7%" y="-9.6%" width="107.4%" height="119.2%" filterUnits="objectBoundingBox" id="c"><feGaussianBlur stdDeviation="1.5" in="SourceAlpha" result="shadowBlurInner1"/><feOffset dy="1" in="shadowBlurInner1" result="shadowOffsetInner1"/><feComposite in="shadowOffsetInner1" in2="SourceAlpha" operator="arithmetic" k2="-1" k3="1" result="shadowInnerInner1"/><feColorMatrix values="0 0 0 0 0 0 0 0 0 0.583572258 0 0 0 0 0.857222577 0 0 0 1 0" in="shadowInnerInner1"/></filter><path d="M39.192 11.506c0 .422.004.845-.001 1.267-.009.67-.024 1.278.497 1.901.675.808.515 1.872.422 2.834-.114 1.185-.347 2.362-.56 3.537-.169.934-.736 1.595-1.683 2.014-.192.085-.336.419-.357.649-.328 3.605-3.917 7.782-7.672 8.83-3.164.883-5.951.121-8.365-1.837-2.128-1.728-3.525-3.883-4.119-6.45-.025-.107-.067-.218-.06-.324.033-.53-.212-.82-.74-1.097-.467-.245-.952-.706-1.107-1.163-.687-2.03-1.015-4.115-.689-6.246.041-.265.114-.59.306-.762.644-.571.463-1.263.486-1.95.057-1.685.015-3.39.297-5.046 1.03-9.829 18.549-8.911 20.72-3.373 2.763 1.339 2.535 3.122 2.628 5.344.026.623.004 1.248.004 1.872h-.007z" id="d"/><filter x="-15.6%" y="-12.2%" width="131.3%" height="124.4%" filterUnits="objectBoundingBox" id="e"><feGaussianBlur stdDeviation="2.5" in="SourceAlpha" result="shadowBlurInner1"/><feOffset dy="-3" in="shadowBlurInner1" result="shadowOffsetInner1"/><feComposite in="shadowOffsetInner1" in2="SourceAlpha" operator="arithmetic" k2="-1" k3="1" result="shadowInnerInner1"/><feColorMatrix values="0 0 0 0 0 0 0 0 0 0.544859197 0 0 0 0 0.80035608 0 0 0 0.493716033 0" in="shadowInnerInner1"/></filter><linearGradient x1="50%" y1="0%" x2="50%" y2="100%" id="f"><stop stop-color="#00D6FF" offset="0%"/><stop stop-color="#009FEA" offset="100%"/></linearGradient><linearGradient x1="50%" y1="0%" x2="50%" y2="100%" id="i"><stop stop-color="#00B8FF" offset="0%"/><stop stop-color="#008FD2" offset="100%"/></linearGradient><path d="M39.33 14.062C33.395 18.655 36.002 6.7 36.002 6.7s-6.428 7.268-16.57 3.294c0 0 .115 6.437-3.916 3.884 0 0-1.927-10.609 6.338-12.952S35.2 1.617 36.8 4.485c3.365 0 2.529 9.577 2.529 9.577z" id="g"/><filter x="-12.5%" y="-20%" width="124.9%" height="140%" filterUnits="objectBoundingBox" id="h"><feGaussianBlur stdDeviation="1.5" in="SourceAlpha" result="shadowBlurInner1"/><feOffset dy="-2" in="shadowBlurInner1" result="shadowOffsetInner1"/><feComposite in="shadowOffsetInner1" in2="SourceAlpha" operator="arithmetic" k2="-1" k3="1" result="shadowInnerInner1"/><feColorMatrix values="0 0 0 0 0 0 0 0 0 0.60891665 0 0 0 0 0.894451531 0 0 0 1 0" in="shadowInnerInner1"/></filter></defs><g fill="none" fill-rule="evenodd"><g transform="translate(0 1)"><use fill="url(#a)" xlink:href="#b"/><use fill="#000" filter="url(#c)" xlink:href="#b"/></g><g opacity=".959" transform="translate(0 1)"><use fill="url(#a)" xlink:href="#d"/><use fill="#000" filter="url(#e)" xlink:href="#d"/></g><g transform="translate(0 1)"><use fill="url(#f)" xlink:href="#g"/><use fill="#000" filter="url(#h)" xlink:href="#g"/><use stroke="url(#i)" xlink:href="#g"/></g><g fill="#00A4F1" stroke="#00A4F1"><path d="M4.017 63.703l-1.605.854.306-1.81-1.299-1.28 1.796-.264.802-1.646.803 1.646 1.796.264-1.3 1.28.307 1.81zM16.08 63.703l-1.606.854.306-1.81-1.299-1.28 1.796-.264.802-1.646.803 1.646 1.796.264-1.3 1.28.307 1.81zM28.142 63.703l-1.606.854.306-1.81-1.299-1.28 1.796-.264.803-1.646.802 1.646 1.796.264-1.3 1.28.307 1.81zM40.204 63.703l-1.606.854.306-1.81-1.299-1.28 1.796-.264.803-1.646.803 1.646 1.795.264-1.3 1.28.307 1.81zM52.266 63.703l-1.606.854.306-1.81-1.299-1.28 1.796-.264.803-1.646.803 1.646 1.795.264-1.3 1.28.308 1.81z"/></g></g></svg>