<svg width="81" height="59" viewBox="0 0 81 59" xmlns="http://www.w3.org/2000/svg" xmlns:xlink="http://www.w3.org/1999/xlink"><title>Group 24</title><defs><linearGradient x1="98.659%" y1="11.48%" x2="5.159%" y2="13.525%" id="a"><stop stop-color="#00BDF9" offset="0%"/><stop stop-color="#0198DE" offset="100%"/></linearGradient><linearGradient x1="100%" y1="50%" x2="0%" y2="50%" id="d"><stop stop-color="#00D1F9" offset="0%"/><stop stop-color="#0086C5" offset="100%"/></linearGradient><path d="M40.265 25.876L63.992 18 64 32.068c-10.154 0-23.735 9.108-23.735 9.108S27.771 31.946 16 31.946l.011-13.042 24.254 6.972z" id="b"/><filter x="-8.3%" y="-18.1%" width="116.7%" height="135.8%" filterUnits="objectBoundingBox" id="c"><feGaussianBlur stdDeviation="1.5" in="SourceAlpha" result="shadowBlurInner1"/><feOffset dy="4" in="shadowBlurInner1" result="shadowOffsetInner1"/><feComposite in="shadowOffsetInner1" in2="SourceAlpha" operator="arithmetic" k2="-1" k3="1" result="shadowInnerInner1"/><feColorMatrix values="0 0 0 0 0 0 0 0 0 0.164530509 0 0 0 0 0.241682611 0 0 0 0.205531024 0" in="shadowInnerInner1"/></filter><linearGradient x1="50%" y1="0%" x2="50%" y2="100%" id="f"><stop stop-color="#00D1F9" offset="0%"/><stop stop-color="#00A4F1" offset="100%"/></linearGradient><linearGradient x1="50%" y1="0%" x2="50%" y2="100%" id="e"><stop stop-color="#00D1F9" offset="0%"/><stop stop-color="#008BCC" offset="100%"/></linearGradient><linearGradient x1="50%" y1="0%" x2="50%" y2="100%" id="g"><stop stop-color="#6BE7FF" offset="0%"/><stop stop-color="#00A4F1" offset="100%"/></linearGradient><filter x="-14.2%" y="-113.3%" width="128.3%" height="326.7%" filterUnits="objectBoundingBox" id="h"><feGaussianBlur stdDeviation="1.889" in="SourceGraphic"/></filter></defs><g transform="translate(1 1)" fill="none" fill-rule="evenodd"><path d="M74 41.113v-25" stroke="#0097DE" stroke-width="2"/><use fill="url(#a)" xlink:href="#b"/><use fill="#000" filter="url(#c)" xlink:href="#b"/><use stroke="url(#d)" xlink:href="#b"/><path d="M0 14.962c4.934-1.856 9.867-3.712 14.802-5.566 4.243-1.594 8.489-3.18 12.73-4.777C31.498 3.126 35.46 1.624 39.42.118c.376-.143.72-.165 1.101-.017 3.204 1.243 6.409 2.482 9.62 3.707 2.836 1.082 5.682 2.14 8.52 3.218 2.444.928 4.883 1.87 7.324 2.805l8.743 3.343c1.32.505 2.64 1.009 3.955 1.522.19.074.404.131.53.32-.058.211-.248.205-.4.255-4.107 1.353-8.212 2.706-12.319 4.056-5.23 1.72-10.458 3.438-15.689 5.155-3.486 1.145-6.974 2.284-10.459 3.431-.233.077-.45.078-.679.003-2.988-.971-5.976-1.945-8.966-2.908-2.468-.794-4.942-1.572-7.412-2.364-3.093-.993-6.183-1.993-9.275-2.99C10.622 18.56 7.23 17.47 3.84 16.371c-1.283-.416-2.56-.855-3.839-1.284v-.125z" stroke="url(#e)" fill="url(#f)"/><path d="M14.802 9.28c4.243-1.595 8.489-3.18 12.73-4.778C31.498 3.009 35.46 1.507 39.42 0c.376-.143.477 27.873.247 27.798-2.988-.971-5.976-1.945-8.966-2.908-2.468-.794-4.942-1.572-7.412-2.364-3.093-.993-6.183-1.993-9.275-2.99-3.392-1.094-6.785-2.184-10.175-3.283-1.283-.416-2.56-.855-3.839-1.284v-.125c4.934-1.856 9.867-3.712 14.802-5.566z" fill="url(#g)"/><ellipse stroke="#00A4F1" fill="#00A4F1" cx="74" cy="34" rx="2" ry="3"/><ellipse fill="#000" opacity=".081" filter="url(#h)" cx="40" cy="51.5" rx="20" ry="2.5"/></g></svg>