<svg width="70" height="57" viewBox="0 0 70 57" xmlns="http://www.w3.org/2000/svg" xmlns:xlink="http://www.w3.org/1999/xlink"><title>Group 7</title><defs><linearGradient x1="50%" y1="0%" x2="50%" y2="100%" id="a"><stop stop-color="#00D1F9" offset="0%"/><stop stop-color="#00A4F1" offset="100%"/></linearGradient><path id="b" d="M13 14.039H0v-1.435l4.333-2.578h4.334L13 12.604z"/><linearGradient x1="50%" y1="0%" x2="50%" y2="100%" id="e"><stop stop-color="#009AE4" offset="0%"/><stop stop-color="#03AEFF" offset="100%"/></linearGradient><path d="M9.725 3.413v.382c-.003.202-.007.385.136.573.185.243.14.564.115.854-.03.357-.094.711-.153 1.066a.784.784 0 0 1-.46.606c-.053.026-.093.126-.099.196-.09 1.086-1.072 2.344-2.1 2.66-.866.266-1.63.037-2.29-.553a3.523 3.523 0 0 1-1.128-1.944c-.007-.032-.019-.065-.017-.097.01-.16-.058-.247-.203-.33a.692.692 0 0 1-.303-.351c-.188-.612-.278-1.24-.188-1.882.01-.08.03-.178.084-.23.176-.172.126-.38.133-.587.015-.508.004-1.022.08-1.52.283-2.962 5.08-2.685 5.674-1.017.757.404.694.941.72 1.61.007.188 0 .376 0 .564h-.001z" id="d"/><filter x="-28.6%" y="-10.1%" width="157.1%" height="140.6%" filterUnits="objectBoundingBox" id="c"><feOffset dy="1" in="SourceAlpha" result="shadowOffsetOuter1"/><feGaussianBlur stdDeviation=".5" in="shadowOffsetOuter1" result="shadowBlurOuter1"/><feComposite in="shadowBlurOuter1" in2="SourceAlpha" operator="out" result="shadowBlurOuter1"/><feColorMatrix values="0 0 0 0 0 0 0 0 0 0.44681023 0 0 0 0 0.656329719 0 0 0 1 0" in="shadowBlurOuter1"/></filter><path id="f" d="M13 14.039H0v-1.435l4.333-2.578h4.334L13 12.604z"/><path d="M9.725 3.413v.382c-.003.202-.007.385.136.573.185.243.14.564.115.854-.03.357-.094.711-.153 1.066a.784.784 0 0 1-.46.606c-.053.026-.093.126-.099.196-.09 1.086-1.072 2.344-2.1 2.66-.866.266-1.63.037-2.29-.553a3.523 3.523 0 0 1-1.128-1.944c-.007-.032-.019-.065-.017-.097.01-.16-.058-.247-.203-.33a.692.692 0 0 1-.303-.351c-.188-.612-.278-1.24-.188-1.882.01-.08.03-.178.084-.23.176-.172.126-.38.133-.587.015-.508.004-1.022.08-1.52.283-2.962 5.08-2.685 5.674-1.017.757.404.694.941.72 1.61.007.188 0 .376 0 .564h-.001z" id="h"/><filter x="-28.6%" y="-10.1%" width="157.1%" height="140.6%" filterUnits="objectBoundingBox" id="g"><feOffset dy="1" in="SourceAlpha" result="shadowOffsetOuter1"/><feGaussianBlur stdDeviation=".5" in="shadowOffsetOuter1" result="shadowBlurOuter1"/><feComposite in="shadowBlurOuter1" in2="SourceAlpha" operator="out" result="shadowBlurOuter1"/><feColorMatrix values="0 0 0 0 0 0 0 0 0 0.44681023 0 0 0 0 0.656329719 0 0 0 1 0" in="shadowBlurOuter1"/></filter><path id="i" d="M13 14.039H0v-1.435l4.333-2.578h4.334L13 12.604z"/><path d="M9.725 3.413v.382c-.003.202-.007.385.136.573.185.243.14.564.115.854-.03.357-.094.711-.153 1.066a.784.784 0 0 1-.46.606c-.053.026-.093.126-.099.196-.09 1.086-1.072 2.344-2.1 2.66-.866.266-1.63.037-2.29-.553a3.523 3.523 0 0 1-1.128-1.944c-.007-.032-.019-.065-.017-.097.01-.16-.058-.247-.203-.33a.692.692 0 0 1-.303-.351c-.188-.612-.278-1.24-.188-1.882.01-.08.03-.178.084-.23.176-.172.126-.38.133-.587.015-.508.004-1.022.08-1.52.283-2.962 5.08-2.685 5.674-1.017.757.404.694.941.72 1.61.007.188 0 .376 0 .564h-.001z" id="k"/><filter x="-28.6%" y="-10.1%" width="157.1%" height="140.6%" filterUnits="objectBoundingBox" id="j"><feOffset dy="1" in="SourceAlpha" result="shadowOffsetOuter1"/><feGaussianBlur stdDeviation=".5" in="shadowOffsetOuter1" result="shadowBlurOuter1"/><feComposite in="shadowBlurOuter1" in2="SourceAlpha" operator="out" result="shadowBlurOuter1"/><feColorMatrix values="0 0 0 0 0 0 0 0 0 0.44681023 0 0 0 0 0.656329719 0 0 0 1 0" in="shadowBlurOuter1"/></filter><path id="l" d="M13 14.039H0v-1.435l4.333-2.578h4.334L13 12.604z"/><path d="M9.725 3.413v.382c-.003.202-.007.385.136.573.185.243.14.564.115.854-.03.357-.094.711-.153 1.066a.784.784 0 0 1-.46.606c-.053.026-.093.126-.099.196-.09 1.086-1.072 2.344-2.1 2.66-.866.266-1.63.037-2.29-.553a3.523 3.523 0 0 1-1.128-1.944c-.007-.032-.019-.065-.017-.097.01-.16-.058-.247-.203-.33a.692.692 0 0 1-.303-.351c-.188-.612-.278-1.24-.188-1.882.01-.08.03-.178.084-.23.176-.172.126-.38.133-.587.015-.508.004-1.022.08-1.52.283-2.962 5.08-2.685 5.674-1.017.757.404.694.941.72 1.61.007.188 0 .376 0 .564h-.001z" id="n"/><filter x="-28.6%" y="-10.1%" width="157.1%" height="140.6%" filterUnits="objectBoundingBox" id="m"><feOffset dy="1" in="SourceAlpha" result="shadowOffsetOuter1"/><feGaussianBlur stdDeviation=".5" in="shadowOffsetOuter1" result="shadowBlurOuter1"/><feComposite in="shadowBlurOuter1" in2="SourceAlpha" operator="out" result="shadowBlurOuter1"/><feColorMatrix values="0 0 0 0 0 0 0 0 0 0.44681023 0 0 0 0 0.656329719 0 0 0 1 0" in="shadowBlurOuter1"/></filter><path id="o" d="M13 14.039H0v-1.435l4.333-2.578h4.334L13 12.604z"/><path d="M9.725 3.413v.382c-.003.202-.007.385.136.573.185.243.14.564.115.854-.03.357-.094.711-.153 1.066a.784.784 0 0 1-.46.606c-.053.026-.093.126-.099.196-.09 1.086-1.072 2.344-2.1 2.66-.866.266-1.63.037-2.29-.553a3.523 3.523 0 0 1-1.128-1.944c-.007-.032-.019-.065-.017-.097.01-.16-.058-.247-.203-.33a.692.692 0 0 1-.303-.351c-.188-.612-.278-1.24-.188-1.882.01-.08.03-.178.084-.23.176-.172.126-.38.133-.587.015-.508.004-1.022.08-1.52.283-2.962 5.08-2.685 5.674-1.017.757.404.694.941.72 1.61.007.188 0 .376 0 .564h-.001z" id="q"/><filter x="-28.6%" y="-10.1%" width="157.1%" height="140.6%" filterUnits="objectBoundingBox" id="p"><feOffset dy="1" in="SourceAlpha" result="shadowOffsetOuter1"/><feGaussianBlur stdDeviation=".5" in="shadowOffsetOuter1" result="shadowBlurOuter1"/><feComposite in="shadowBlurOuter1" in2="SourceAlpha" operator="out" result="shadowBlurOuter1"/><feColorMatrix values="0 0 0 0 0 0 0 0 0 0.44681023 0 0 0 0 0.656329719 0 0 0 1 0" in="shadowBlurOuter1"/></filter><path id="r" d="M13 14.039H0v-1.435l4.333-2.578h4.334L13 12.604z"/><path d="M9.725 3.413v.382c-.003.202-.007.385.136.573.185.243.14.564.115.854-.03.357-.094.711-.153 1.066a.784.784 0 0 1-.46.606c-.053.026-.093.126-.099.196-.09 1.086-1.072 2.344-2.1 2.66-.866.266-1.63.037-2.29-.553a3.523 3.523 0 0 1-1.128-1.944c-.007-.032-.019-.065-.017-.097.01-.16-.058-.247-.203-.33a.692.692 0 0 1-.303-.351c-.188-.612-.278-1.24-.188-1.882.01-.08.03-.178.084-.23.176-.172.126-.38.133-.587.015-.508.004-1.022.08-1.52.283-2.962 5.08-2.685 5.674-1.017.757.404.694.941.72 1.61.007.188 0 .376 0 .564h-.001z" id="t"/><filter x="-28.6%" y="-10.1%" width="157.1%" height="140.6%" filterUnits="objectBoundingBox" id="s"><feOffset dy="1" in="SourceAlpha" result="shadowOffsetOuter1"/><feGaussianBlur stdDeviation=".5" in="shadowOffsetOuter1" result="shadowBlurOuter1"/><feComposite in="shadowBlurOuter1" in2="SourceAlpha" operator="out" result="shadowBlurOuter1"/><feColorMatrix values="0 0 0 0 0 0 0 0 0 0.44681023 0 0 0 0 0.656329719 0 0 0 1 0" in="shadowBlurOuter1"/></filter><path id="u" d="M13 14.039H0v-1.435l4.333-2.578h4.334L13 12.604z"/><path d="M9.725 3.413v.382c-.003.202-.007.385.136.573.185.243.14.564.115.854-.03.357-.094.711-.153 1.066a.784.784 0 0 1-.46.606c-.053.026-.093.126-.099.196-.09 1.086-1.072 2.344-2.1 2.66-.866.266-1.63.037-2.29-.553a3.523 3.523 0 0 1-1.128-1.944c-.007-.032-.019-.065-.017-.097.01-.16-.058-.247-.203-.33a.692.692 0 0 1-.303-.351c-.188-.612-.278-1.24-.188-1.882.01-.08.03-.178.084-.23.176-.172.126-.38.133-.587.015-.508.004-1.022.08-1.52.283-2.962 5.08-2.685 5.674-1.017.757.404.694.941.72 1.61.007.188 0 .376 0 .564h-.001z" id="w"/><filter x="-28.6%" y="-10.1%" width="157.1%" height="140.6%" filterUnits="objectBoundingBox" id="v"><feOffset dy="1" in="SourceAlpha" result="shadowOffsetOuter1"/><feGaussianBlur stdDeviation=".5" in="shadowOffsetOuter1" result="shadowBlurOuter1"/><feComposite in="shadowBlurOuter1" in2="SourceAlpha" operator="out" result="shadowBlurOuter1"/><feColorMatrix values="0 0 0 0 0 0 0 0 0 0.44681023 0 0 0 0 0.656329719 0 0 0 1 0" in="shadowBlurOuter1"/></filter><path id="x" d="M13 14.039H0v-1.435l4.333-2.578h4.334L13 12.604z"/><path d="M9.725 3.413v.382c-.003.202-.007.385.136.573.185.243.14.564.115.854-.03.357-.094.711-.153 1.066a.784.784 0 0 1-.46.606c-.053.026-.093.126-.099.196-.09 1.086-1.072 2.344-2.1 2.66-.866.266-1.63.037-2.29-.553a3.523 3.523 0 0 1-1.128-1.944c-.007-.032-.019-.065-.017-.097.01-.16-.058-.247-.203-.33a.692.692 0 0 1-.303-.351c-.188-.612-.278-1.24-.188-1.882.01-.08.03-.178.084-.23.176-.172.126-.38.133-.587.015-.508.004-1.022.08-1.52.283-2.962 5.08-2.685 5.674-1.017.757.404.694.941.72 1.61.007.188 0 .376 0 .564h-.001z" id="z"/><filter x="-28.6%" y="-10.1%" width="157.1%" height="140.6%" filterUnits="objectBoundingBox" id="y"><feOffset dy="1" in="SourceAlpha" result="shadowOffsetOuter1"/><feGaussianBlur stdDeviation=".5" in="shadowOffsetOuter1" result="shadowBlurOuter1"/><feComposite in="shadowBlurOuter1" in2="SourceAlpha" operator="out" result="shadowBlurOuter1"/><feColorMatrix values="0 0 0 0 0 0 0 0 0 0.44681023 0 0 0 0 0.656329719 0 0 0 1 0" in="shadowBlurOuter1"/></filter><linearGradient x1="100%" y1="50%" x2="0%" y2="50%" id="A"><stop stop-color="#00D1F9" offset="0%"/><stop stop-color="#00A4F1" offset="100%"/></linearGradient><linearGradient x1="136.657%" y1="50%" x2="0%" y2="50%" id="D"><stop stop-color="#00D1F9" offset="0%"/><stop stop-color="#018CCE" offset="100%"/></linearGradient><ellipse id="B" cx="60.928" cy="36.732" rx="2" ry="8"/><filter x="-75%" y="-18.8%" width="250%" height="137.5%" filterUnits="objectBoundingBox" id="C"><feGaussianBlur stdDeviation="1.5" in="SourceAlpha" result="shadowBlurInner1"/><feOffset dx="1" dy="2" in="shadowBlurInner1" result="shadowOffsetInner1"/><feComposite in="shadowOffsetInner1" in2="SourceAlpha" operator="arithmetic" k2="-1" k3="1" result="shadowInnerInner1"/><feColorMatrix values="0 0 0 0 0 0 0 0 0 0.504717009 0 0 0 0 0.741390306 0 0 0 1 0" in="shadowInnerInner1"/></filter><linearGradient x1="86.761%" y1="6.089%" x2="22.368%" y2="100%" id="F"><stop stop-color="#00D1F9" offset="0%"/><stop stop-color="#008DCF" offset="100%"/></linearGradient><circle id="E" cx="46.5" cy="28.158" r="10.5"/><path d="M51.034 24.984c0 .173.002.345 0 .518-.003.274-.01.522.184.776.25.33.191.765.157 1.158-.043.484-.129.965-.208 1.445-.063.38-.273.65-.625.822-.071.035-.124.171-.132.265-.122 1.472-1.454 3.179-2.848 3.607-1.174.36-2.21.05-3.105-.75a4.776 4.776 0 0 1-1.529-2.635c-.01-.044-.025-.089-.022-.132.012-.217-.08-.335-.275-.448-.173-.1-.354-.289-.41-.476-.256-.828-.378-1.68-.257-2.55.015-.109.042-.242.114-.312.239-.233.172-.516.18-.797.021-.688.006-1.384.11-2.06.383-4.015 6.886-3.64 7.692-1.378 1.025.547.94 1.275.975 2.183.01.254.002.51.002.764h-.003z" id="I"/><filter x="-31.6%" y="-15.2%" width="163.2%" height="152.6%" filterUnits="objectBoundingBox" id="H"><feMorphology radius=".5" operator="dilate" in="SourceAlpha" result="shadowSpreadOuter1"/><feOffset dy="2" in="shadowSpreadOuter1" result="shadowOffsetOuter1"/><feGaussianBlur stdDeviation=".5" in="shadowOffsetOuter1" result="shadowBlurOuter1"/><feComposite in="shadowBlurOuter1" in2="SourceAlpha" operator="out" result="shadowBlurOuter1"/><feColorMatrix values="0 0 0 0 0 0 0 0 0 0.516747002 0 0 0 0 0.759061437 0 0 0 1 0" in="shadowBlurOuter1"/></filter><linearGradient x1="50%" y1="0%" x2="50%" y2="100%" id="J"><stop stop-color="#00D6FF" offset="0%"/><stop stop-color="#006A9C" offset="100%"/></linearGradient><path d="M51.962 25.856c-2.463 1.924-1.381-3.086-1.381-3.086s-2.667 3.046-6.875 1.38c0 0 .047 2.698-1.625 1.628 0 0-.8-4.446 2.63-5.428 3.43-.982 5.538.29 6.201 1.492 1.397 0 1.05 4.014 1.05 4.014z" id="K"/><filter x="-25%" y="-39.7%" width="150%" height="179.4%" filterUnits="objectBoundingBox" id="L"><feGaussianBlur stdDeviation="1.5" in="SourceAlpha" result="shadowBlurInner1"/><feOffset dy="-2" in="shadowBlurInner1" result="shadowOffsetInner1"/><feComposite in="shadowOffsetInner1" in2="SourceAlpha" operator="arithmetic" k2="-1" k3="1" result="shadowInnerInner1"/><feColorMatrix values="0 0 0 0 0 0 0 0 0 0.60891665 0 0 0 0 0.894451531 0 0 0 1 0" in="shadowInnerInner1"/></filter></defs><g transform="translate(1)" fill="none" fill-rule="evenodd"><g stroke-linejoin="round"><use fill="url(#a)" xlink:href="#b"/><path stroke="#00A4F1" d="M13.5 14.539h-14v-2.22l4.696-2.793h4.608L13.5 12.32v2.219z"/></g><use fill="#000" filter="url(#c)" xlink:href="#d"/><use fill="url(#a)" xlink:href="#d"/><path stroke="url(#e)" d="M9.228 2.913l-.002-.045a15.295 15.295 0 0 1-.006-.196c-.017-.653-.07-.789-.449-.991l-.17-.091-.066-.183C8.007-.076 4.03.205 3.827 2.332c-.042.27-.057.532-.066 1.002l-.002.096-.008.361v.01l.001.086c.009.376-.036.592-.283.833.06-.059.062-.063.061-.058-.073.524-.012 1.069.171 1.666 0-.001.04.044.075.064.29.167.455.408.454.736l.005.023c.14.663.463 1.22.972 1.673.56.501 1.148.652 1.81.448.826-.253 1.676-1.334 1.75-2.224.019-.236.135-.485.376-.603.118-.058.168-.122.187-.239l.024-.148c.074-.443.103-.64.124-.88l.006-.066c.008-.083.011-.124.014-.169.008-.158-.006-.234-.035-.273a1.152 1.152 0 0 1-.125-.204c-.1-.213-.117-.364-.113-.669V3.79v-.184-.074-.618h.003zM3.468 4.72zM4.23 7.16a1.038 1.038 0 0 1 0-.002zm5.428.145a1.56 1.56 0 0 1-.076.04.602.602 0 0 0 .083-.048z"/><g stroke-linejoin="round" transform="translate(0 20)"><use fill="url(#a)" xlink:href="#f"/><path stroke="#00A4F1" d="M13.5 14.539h-14v-2.22l4.696-2.793h4.608L13.5 12.32v2.219z"/></g><g transform="translate(0 20)"><use fill="#000" filter="url(#g)" xlink:href="#h"/><use fill="url(#a)" xlink:href="#h"/><path stroke="url(#e)" d="M9.228 2.913l-.002-.045a15.295 15.295 0 0 1-.006-.196c-.017-.653-.07-.789-.449-.991l-.17-.091-.066-.183C8.007-.076 4.03.205 3.827 2.332c-.042.27-.057.532-.066 1.002l-.002.096-.008.361v.01l.001.086c.009.376-.036.592-.283.833.06-.059.062-.063.061-.058-.073.524-.012 1.069.171 1.666 0-.001.04.044.075.064.29.167.455.408.454.736l.005.023c.14.663.463 1.22.972 1.673.56.501 1.148.652 1.81.448.826-.253 1.676-1.334 1.75-2.224.019-.236.135-.485.376-.603.118-.058.168-.122.187-.239l.024-.148c.074-.443.103-.64.124-.88l.006-.066c.008-.083.011-.124.014-.169.008-.158-.006-.234-.035-.273a1.152 1.152 0 0 1-.125-.204c-.1-.213-.117-.364-.113-.669V3.79v-.184-.074-.618h.003zM3.468 4.72zM4.23 7.16a1.038 1.038 0 0 1 0-.002zm5.428.145a1.56 1.56 0 0 1-.076.04.602.602 0 0 0 .083-.048z"/></g><g stroke-linejoin="round" transform="translate(20 20)"><use fill="url(#a)" xlink:href="#i"/><path stroke="#00A4F1" d="M13.5 14.539h-14v-2.22l4.696-2.793h4.608L13.5 12.32v2.219z"/></g><g transform="translate(20 20)"><use fill="#000" filter="url(#j)" xlink:href="#k"/><use fill="url(#a)" xlink:href="#k"/><path stroke="url(#e)" d="M9.228 2.913l-.002-.045a15.295 15.295 0 0 1-.006-.196c-.017-.653-.07-.789-.449-.991l-.17-.091-.066-.183C8.007-.076 4.03.205 3.827 2.332c-.042.27-.057.532-.066 1.002l-.002.096-.008.361v.01l.001.086c.009.376-.036.592-.283.833.06-.059.062-.063.061-.058-.073.524-.012 1.069.171 1.666 0-.001.04.044.075.064.29.167.455.408.454.736l.005.023c.14.663.463 1.22.972 1.673.56.501 1.148.652 1.81.448.826-.253 1.676-1.334 1.75-2.224.019-.236.135-.485.376-.603.118-.058.168-.122.187-.239l.024-.148c.074-.443.103-.64.124-.88l.006-.066c.008-.083.011-.124.014-.169.008-.158-.006-.234-.035-.273a1.152 1.152 0 0 1-.125-.204c-.1-.213-.117-.364-.113-.669V3.79v-.184-.074-.618h.003zM3.468 4.72zM4.23 7.16a1.038 1.038 0 0 1 0-.002zm5.428.145a1.56 1.56 0 0 1-.076.04.602.602 0 0 0 .083-.048z"/></g><g stroke-linejoin="round" transform="translate(20 41)"><use fill="url(#a)" xlink:href="#l"/><path stroke="#00A4F1" d="M13.5 14.539h-14v-2.22l4.696-2.793h4.608L13.5 12.32v2.219z"/></g><g transform="translate(20 41)"><use fill="#000" filter="url(#m)" xlink:href="#n"/><use fill="url(#a)" xlink:href="#n"/><path stroke="url(#e)" d="M9.228 2.913l-.002-.045a15.295 15.295 0 0 1-.006-.196c-.017-.653-.07-.789-.449-.991l-.17-.091-.066-.183C8.007-.076 4.03.205 3.827 2.332c-.042.27-.057.532-.066 1.002l-.002.096-.008.361v.01l.001.086c.009.376-.036.592-.283.833.06-.059.062-.063.061-.058-.073.524-.012 1.069.171 1.666 0-.001.04.044.075.064.29.167.455.408.454.736l.005.023c.14.663.463 1.22.972 1.673.56.501 1.148.652 1.81.448.826-.253 1.676-1.334 1.75-2.224.019-.236.135-.485.376-.603.118-.058.168-.122.187-.239l.024-.148c.074-.443.103-.64.124-.88l.006-.066c.008-.083.011-.124.014-.169.008-.158-.006-.234-.035-.273a1.152 1.152 0 0 1-.125-.204c-.1-.213-.117-.364-.113-.669V3.79v-.184-.074-.618h.003zM3.468 4.72zM4.23 7.16a1.038 1.038 0 0 1 0-.002zm5.428.145a1.56 1.56 0 0 1-.076.04.602.602 0 0 0 .083-.048z"/></g><g stroke-linejoin="round" transform="translate(40 41)"><use fill="url(#a)" xlink:href="#o"/><path stroke="#00A4F1" d="M13.5 14.539h-14v-2.22l4.696-2.793h4.608L13.5 12.32v2.219z"/></g><g transform="translate(40 41)"><use fill="#000" filter="url(#p)" xlink:href="#q"/><use fill="url(#a)" xlink:href="#q"/><path stroke="url(#e)" d="M9.228 2.913l-.002-.045a15.295 15.295 0 0 1-.006-.196c-.017-.653-.07-.789-.449-.991l-.17-.091-.066-.183C8.007-.076 4.03.205 3.827 2.332c-.042.27-.057.532-.066 1.002l-.002.096-.008.361v.01l.001.086c.009.376-.036.592-.283.833.06-.059.062-.063.061-.058-.073.524-.012 1.069.171 1.666 0-.001.04.044.075.064.29.167.455.408.454.736l.005.023c.14.663.463 1.22.972 1.673.56.501 1.148.652 1.81.448.826-.253 1.676-1.334 1.75-2.224.019-.236.135-.485.376-.603.118-.058.168-.122.187-.239l.024-.148c.074-.443.103-.64.124-.88l.006-.066c.008-.083.011-.124.014-.169.008-.158-.006-.234-.035-.273a1.152 1.152 0 0 1-.125-.204c-.1-.213-.117-.364-.113-.669V3.79v-.184-.074-.618h.003zM3.468 4.72zM4.23 7.16a1.038 1.038 0 0 1 0-.002zm5.428.145a1.56 1.56 0 0 1-.076.04.602.602 0 0 0 .083-.048z"/></g><g stroke-linejoin="round" transform="translate(0 41)"><use fill="url(#a)" xlink:href="#r"/><path stroke="#00A4F1" d="M13.5 14.539h-14v-2.22l4.696-2.793h4.608L13.5 12.32v2.219z"/></g><g transform="translate(0 41)"><use fill="#000" filter="url(#s)" xlink:href="#t"/><use fill="url(#a)" xlink:href="#t"/><path stroke="url(#e)" d="M9.228 2.913l-.002-.045a15.295 15.295 0 0 1-.006-.196c-.017-.653-.07-.789-.449-.991l-.17-.091-.066-.183C8.007-.076 4.03.205 3.827 2.332c-.042.27-.057.532-.066 1.002l-.002.096-.008.361v.01l.001.086c.009.376-.036.592-.283.833.06-.059.062-.063.061-.058-.073.524-.012 1.069.171 1.666 0-.001.04.044.075.064.29.167.455.408.454.736l.005.023c.14.663.463 1.22.972 1.673.56.501 1.148.652 1.81.448.826-.253 1.676-1.334 1.75-2.224.019-.236.135-.485.376-.603.118-.058.168-.122.187-.239l.024-.148c.074-.443.103-.64.124-.88l.006-.066c.008-.083.011-.124.014-.169.008-.158-.006-.234-.035-.273a1.152 1.152 0 0 1-.125-.204c-.1-.213-.117-.364-.113-.669V3.79v-.184-.074-.618h.003zM3.468 4.72zM4.23 7.16a1.038 1.038 0 0 1 0-.002zm5.428.145a1.56 1.56 0 0 1-.076.04.602.602 0 0 0 .083-.048z"/></g><g><g stroke-linejoin="round" transform="translate(20)"><use fill="url(#a)" xlink:href="#u"/><path stroke="#00A4F1" d="M13.5 14.539h-14v-2.22l4.696-2.793h4.608L13.5 12.32v2.219z"/></g><g transform="translate(20)"><use fill="#000" filter="url(#v)" xlink:href="#w"/><use fill="url(#a)" xlink:href="#w"/><path stroke="url(#e)" d="M9.228 2.913l-.002-.045a15.295 15.295 0 0 1-.006-.196c-.017-.653-.07-.789-.449-.991l-.17-.091-.066-.183C8.007-.076 4.03.205 3.827 2.332c-.042.27-.057.532-.066 1.002l-.002.096-.008.361v.01l.001.086c.009.376-.036.592-.283.833.06-.059.062-.063.061-.058-.073.524-.012 1.069.171 1.666 0-.001.04.044.075.064.29.167.455.408.454.736l.005.023c.14.663.463 1.22.972 1.673.56.501 1.148.652 1.81.448.826-.253 1.676-1.334 1.75-2.224.019-.236.135-.485.376-.603.118-.058.168-.122.187-.239l.024-.148c.074-.443.103-.64.124-.88l.006-.066c.008-.083.011-.124.014-.169.008-.158-.006-.234-.035-.273a1.152 1.152 0 0 1-.125-.204c-.1-.213-.117-.364-.113-.669V3.79v-.184-.074-.618h.003zM3.468 4.72zM4.23 7.16a1.038 1.038 0 0 1 0-.002zm5.428.145a1.56 1.56 0 0 1-.076.04.602.602 0 0 0 .083-.048z"/></g></g><g><g stroke-linejoin="round" transform="translate(40)"><use fill="url(#a)" xlink:href="#x"/><path stroke="#00A4F1" d="M13.5 14.539h-14v-2.22l4.696-2.793h4.608L13.5 12.32v2.219z"/></g><g transform="translate(40)"><use fill="#000" filter="url(#y)" xlink:href="#z"/><use fill="url(#a)" xlink:href="#z"/><path stroke="url(#e)" d="M9.228 2.913l-.002-.045a15.295 15.295 0 0 1-.006-.196c-.017-.653-.07-.789-.449-.991l-.17-.091-.066-.183C8.007-.076 4.03.205 3.827 2.332c-.042.27-.057.532-.066 1.002l-.002.096-.008.361v.01l.001.086c.009.376-.036.592-.283.833.06-.059.062-.063.061-.058-.073.524-.012 1.069.171 1.666 0-.001.04.044.075.064.29.167.455.408.454.736l.005.023c.14.663.463 1.22.972 1.673.56.501 1.148.652 1.81.448.826-.253 1.676-1.334 1.75-2.224.019-.236.135-.485.376-.603.118-.058.168-.122.187-.239l.024-.148c.074-.443.103-.64.124-.88l.006-.066c.008-.083.011-.124.014-.169.008-.158-.006-.234-.035-.273a1.152 1.152 0 0 1-.125-.204c-.1-.213-.117-.364-.113-.669V3.79v-.184-.074-.618h.003zM3.468 4.72zM4.23 7.16a1.038 1.038 0 0 1 0-.002zm5.428.145a1.56 1.56 0 0 1-.076.04.602.602 0 0 0 .083-.048z"/></g></g><g transform="rotate(-60 60.928 36.732)"><use fill="url(#A)" xlink:href="#B"/><use fill="#000" filter="url(#C)" xlink:href="#B"/><use stroke="url(#D)" xlink:href="#B"/></g><mask id="G" fill="#fff"><use xlink:href="#E"/></mask><g><use fill="#FFF" xlink:href="#E"/><circle stroke="url(#F)" cx="46.5" cy="28.158" r="11"/></g><path d="M50.132 32.882c.05.014.098.038.14.067.979.657 2.079.989 3.214 1.23.124.025.245.065.37.084.714.105 1.144.539 1.42 1.187.486 1.145.772 2.347 1.02 3.559.163.8.295 1.607.422 2.414.122.77-.366 1.42-1.132 1.531-.17.025-.341.041-.512.041-.97 0-12.208.002-16.856-.002a2.7 2.7 0 0 1-.727-.095 1.273 1.273 0 0 1-.92-1.397c.26-1.774.58-3.536 1.15-5.24.14-.417.334-.818.526-1.214a1.27 1.27 0 0 1 .866-.69c.648-.166 1.301-.316 1.945-.498a7.1 7.1 0 0 0 1.926-.878c.078-.05.177-.104.263-.1.066.004 6.701-.05 6.885 0z" stroke="#00A4F1" fill="url(#a)" mask="url(#G)"/><g mask="url(#G)"><use fill="#000" filter="url(#H)" xlink:href="#I"/><use stroke="#00A0EB" fill="url(#a)" xlink:href="#I"/></g><g mask="url(#G)"><use fill="url(#J)" xlink:href="#K"/><use fill="#000" filter="url(#L)" xlink:href="#K"/></g></g></svg>