<svg width="55" height="51" viewBox="0 0 55 51" xmlns="http://www.w3.org/2000/svg" xmlns:xlink="http://www.w3.org/1999/xlink"><title>Group 6</title><defs><linearGradient x1="50%" y1="0%" x2="50%" y2="100%" id="a"><stop stop-color="#00D1F9" offset="0%"/><stop stop-color="#00A4F1" offset="100%"/></linearGradient><linearGradient x1="50%" y1="0%" x2="50%" y2="100%" id="c"><stop stop-color="#8AECFF" offset="0%"/><stop stop-color="#0097DE" offset="100%"/></linearGradient><rect id="b" y="1.111" width="55" height="48.889" rx="3"/><linearGradient x1="50%" y1="0%" x2="50%" y2="100%" id="d"><stop stop-color="#00B2D9" offset="0%"/><stop stop-color="#027DB6" offset="100%"/></linearGradient></defs><g fill="none" fill-rule="evenodd"><g transform="translate(0 1)"><use fill="url(#a)" xlink:href="#b"/><rect stroke="url(#c)" x=".5" y="1.611" width="54" height="47.889" rx="3"/></g><g transform="translate(7.857 4.36)"><path d="M11.143 4a2 2 0 1 1 0-4 2 2 0 0 1 0 4zm9 0a2 2 0 1 1 0-4 2 2 0 0 1 0 4zm9 0a2 2 0 1 1 0-4 2 2 0 0 1 0 4zm9 0a2 2 0 1 1 0-4 2 2 0 0 1 0 4zm-36 0a2 2 0 1 1 0-4 2 2 0 0 1 0 4z" fill="#207AA4"/><ellipse fill="#D7F2FF" cx="2.684" cy="21.64" rx="1.684" ry="1.667"/><ellipse fill="#D7F2FF" cx="2.684" cy="29.417" rx="1.684" ry="1.667"/><ellipse fill="#D7F2FF" cx="2.684" cy="37.195" rx="1.684" ry="1.667"/><ellipse fill="#D7F2FF" cx="11.663" cy="21.64" rx="1.684" ry="1.667"/><ellipse fill="#D7F2FF" cx="11.663" cy="13.862" rx="1.684" ry="1.667"/><ellipse fill="#D7F2FF" cx="11.663" cy="29.417" rx="1.684" ry="1.667"/><ellipse fill="#D7F2FF" cx="11.663" cy="37.195" rx="1.684" ry="1.667"/><ellipse fill="#D7F2FF" cx="20.643" cy="13.862" rx="1.684" ry="1.667"/><ellipse fill="#D7F2FF" cx="20.643" cy="21.64" rx="1.684" ry="1.667"/><ellipse fill="#D7F2FF" cx="20.643" cy="29.417" rx="1.684" ry="1.667"/><ellipse fill="#D7F2FF" cx="20.643" cy="37.195" rx="1.684" ry="1.667"/><ellipse fill="#D7F2FF" cx="29.622" cy="13.862" rx="1.684" ry="1.667"/><ellipse fill="#D7F2FF" cx="29.622" cy="21.64" rx="1.684" ry="1.667"/><ellipse fill="#D7F2FF" cx="29.622" cy="37.195" rx="1.684" ry="1.667"/><ellipse fill="#D7F2FF" cx="38.602" cy="13.862" rx="1.684" ry="1.667"/><ellipse fill="#D7F2FF" cx="38.602" cy="21.64" rx="1.684" ry="1.667"/><ellipse fill="#D7F2FF" cx="38.602" cy="29.417" rx="1.684" ry="1.667"/><path d="M29.622 32.75c1.86 0 3.368-1.492 3.368-3.333 0-1.84-1.508-3.333-3.368-3.333-1.86 0-3.367 1.492-3.367 3.333 0 1.841 1.508 3.334 3.367 3.334z" stroke="#D8F3FF"/></g><path d="M10 4.444V0M19 4.444V0M28 4.444V0M37 4.444V0M46 4.444V0" stroke="url(#d)" stroke-width="2" stroke-linecap="round" transform="translate(0 1)"/><path d="M1.561 10.333h52" stroke="#1296D4" stroke-linecap="square"/></g></svg>